<svg width="50" height="50" viewBox="0 0 72 72" fill="none" xmlns="http://www.w3.org/2000/svg">
<g clip-path="url(#clip0_430_473)">
<path d="M0.875 35.9972C0.875 16.581 16.6151 0.840912 36.0312 0.840912C55.4474 0.840912 71.1875 16.581 71.1875 35.9972L36.0312 39.0542L0.875 35.9972Z" fill="#FFDA44"/>
<path d="M5.57935 53.5753C11.6582 64.0832 23.0186 71.1534 36.0313 71.1534C49.0439 71.1534 60.4043 64.0832 66.4832 53.5753L36.0313 51.2825L5.57935 53.5753Z" fill="#D80027"/>
<path d="M66.4832 53.5753C69.4745 48.4043 71.1875 42.4009 71.1875 35.9971H0.875C0.875 42.4009 2.58804 48.4043 5.57935 53.5753H66.4832Z" fill="#0052B4"/>
<path d="M36.0313 48.2253C42.7847 48.2253 48.2595 42.7506 48.2595 35.9971C48.2595 29.2437 42.7847 23.7689 36.0313 23.7689C29.2779 23.7689 23.8031 29.2437 23.8031 35.9971C23.8031 42.7506 29.2779 48.2253 36.0313 48.2253Z" fill="#FFDA44"/>
<path d="M36.0312 43.6398C31.817 43.6398 28.3885 40.2112 28.3885 35.9971V31.4116C28.3885 27.1973 31.8171 23.7689 36.0312 23.7689C40.2453 23.7689 43.6738 27.1975 43.6738 31.4116V35.9971C43.6738 40.2113 40.2454 43.6398 36.0312 43.6398Z" fill="#338AF3"/>
<path d="M48.2594 17.6548H39.0882C39.0882 15.9665 37.7194 14.5977 36.0311 14.5977C34.3427 14.5977 32.974 15.9665 32.974 17.6548H23.8027C23.8027 19.3433 25.2734 20.7119 26.9616 20.7119H26.8598C26.8598 22.4003 28.2284 23.769 29.9169 23.769C29.9169 25.4574 31.2855 26.8261 32.974 26.8261H39.0882C40.7766 26.8261 42.1452 25.4574 42.1452 23.769C43.8337 23.769 45.2023 22.4003 45.2023 20.7119H45.1006C46.7889 20.7119 48.2594 19.3431 48.2594 17.6548V17.6548Z" fill="black"/>
</g>
<defs>
<clipPath id="clip0_430_473">
<rect width="70.3125" height="70.3125" fill="white" transform="translate(0.875 0.840912)"/>
</clipPath>
</defs>
</svg>
