<svg width="50" height="50" viewBox="0 0 71 72" fill="none" xmlns="http://www.w3.org/2000/svg">
<g clip-path="url(#clip0_430_480)">
<path d="M35.4062 71.1534C54.8225 71.1534 70.5625 55.4134 70.5625 35.9972C70.5625 16.5809 54.8225 0.840912 35.4062 0.840912C15.99 0.840912 0.25 16.5809 0.25 35.9972C0.25 55.4134 15.99 71.1534 35.4062 71.1534Z" fill="#F0F0F0"/>
<path d="M35.4062 0.840912C20.2903 0.840912 7.40398 10.3814 2.43665 23.769H68.3759C63.4084 10.3814 50.5222 0.840912 35.4062 0.840912V0.840912Z" fill="#A2001D"/>
<path d="M35.4062 71.1534C50.5222 71.1534 63.4084 61.6129 68.3758 48.2253H2.43665C7.40398 61.6129 20.2903 71.1534 35.4062 71.1534Z" fill="#0052B4"/>
</g>
<defs>
<clipPath id="clip0_430_480">
<rect width="70.3125" height="70.3125" fill="white" transform="translate(0.25 0.840912)"/>
</clipPath>
</defs>
</svg>
