<svg width="50" height="50" viewBox="0 0 71 72" fill="none" xmlns="http://www.w3.org/2000/svg">
<g clip-path="url(#clip0_430_480)">
<path d="M35.4062 71.1534C54.8225 71.1534 70.5625 55.4134 70.5625 35.9972C70.5625 16.5809 54.8225 0.840912 35.4062 0.840912C15.99 0.840912 0.25 16.5809 0.25 35.9972C0.25 55.4134 15.99 71.1534 35.4062 71.1534Z" fill="#F0F0F0"/>
<path d="M70.5625 35.9971C70.5625 55.4133 54.8224 71.1534 35.4062 71.1534C15.9901 71.1534 0.25 55.4133 0.25 35.9971" fill="#496E2D"/>
<path d="M61.0887 25.3051C59.8314 21.7397 56.4343 19.1834 52.4387 19.1834H44.5775C39.5123 19.1834 35.4062 23.2896 35.4062 28.3547C35.4062 30.0095 35.8468 31.5999 36.6135 32.9402C33.6943 32.9163 30.9926 32.9604 29.292 32.9402C29.292 29.4032 29.292 24.8974 29.292 23.9546L29.6532 23.5935C31.2745 21.9722 30.7339 19.2701 30.7339 19.2701C30.7339 19.2701 28.032 18.7297 26.4107 20.351L24.5212 22.2405H22.4136C17.7705 22.2405 14.0068 26.0044 14.0068 30.6474H20.1209V37.5258C20.1209 38.5318 20.3238 39.4903 20.6903 40.3631L18.5923 42.1113H15.5352V39.0542H12.4781V45.1684H26.235V51.2826H23.1779V54.3397H29.292V48.2255L32.0942 44.8627H38.718L41.5202 48.2255V51.2826H38.4632V54.3397H50.6914V37.5256C50.6914 34.9931 52.7444 32.9401 55.2769 32.9401C55.342 32.9401 55.4065 32.9424 55.4711 32.945C55.3445 32.455 55.2769 31.9413 55.2769 31.4116C55.2772 28.1364 57.8525 25.4629 61.0887 25.3051V25.3051ZM44.5775 51.2824V44.8626H44.8322L47.6344 48.2254V51.2824H44.5775Z" fill="#D80027"/>
</g>
<defs>
<clipPath id="clip0_430_480">
<rect width="70.3125" height="70.3125" fill="white" transform="translate(0.25 0.840912)"/>
</clipPath>
</defs>
</svg>
