<svg width="50" height="72" viewBox="0 0 71 72" fill="none" xmlns="http://www.w3.org/2000/svg">
<g clip-path="url(#clip0_430_480)">
<path d="M35.4062 71.1534C54.8225 71.1534 70.5625 55.4134 70.5625 35.9972C70.5625 16.5809 54.8225 0.840912 35.4062 0.840912C15.99 0.840912 0.25 16.5809 0.25 35.9972C0.25 55.4134 15.99 71.1534 35.4062 71.1534Z" fill="#F0F0F0"/>
<path d="M70.5625 35.9972C70.5625 20.8812 61.0219 7.99495 47.6344 3.02762V68.9669C61.0219 63.9994 70.5625 51.1131 70.5625 35.9972V35.9972Z" fill="#D80027"/>
<path d="M0.25 35.9972C0.25 51.1131 9.79066 63.9994 23.1781 68.9667V3.02762C9.79066 7.99495 0.25 20.8812 0.25 35.9972Z" fill="#0052B4"/>
</g>
<defs>
<clipPath id="clip0_430_480">
<rect width="70.3125" height="70.3125" fill="white" transform="translate(0.25 0.840912)"/>
</clipPath>
</defs>
</svg>
