<svg width="50" height="50" viewBox="0 0 71 72" fill="none" xmlns="http://www.w3.org/2000/svg">
<g clip-path="url(#clip0_430_480)">
<path d="M70.5625 35.9972C70.5625 55.4133 54.8224 71.1534 35.4062 71.1534C15.9901 71.1534 0.25 55.4133 0.25 35.9972C0.25 36.0054 35.4062 0.844894 35.4062 0.840912C54.8224 0.840912 70.5625 16.581 70.5625 35.9972Z" fill="#0052B4"/>
<path d="M35.4063 0.840912C35.4044 0.840912 35.4023 0.841049 35.4004 0.841049L35.4063 0.840912Z" fill="#F0F0F0"/>
<path d="M35.3121 35.9971H35.4062C35.4062 35.9653 35.4062 35.9348 35.4062 35.9031C35.3749 35.9345 35.3436 35.9658 35.3121 35.9971Z" fill="#F0F0F0"/>
<path d="M35.4063 19.1834C35.4063 12.9974 35.4063 8.94383 35.4063 0.841003H35.4003C15.9868 0.844162 0.25 16.5828 0.25 35.9971H18.5924V25.6683L28.9212 35.9971H35.3123C35.3438 35.9658 35.3751 35.9345 35.4064 35.903C35.4064 33.5345 35.4064 31.4212 35.4064 29.5123L25.0775 19.1834H35.4063Z" fill="#F0F0F0"/>
<path d="M18.0362 5.42645C12.5377 8.55742 7.96654 13.1286 4.83557 18.6271V35.9971H14.0068V14.5978V14.5977H35.4063C35.4063 11.7051 35.4063 8.94949 35.4063 5.42645H18.0362Z" fill="#D80027"/>
<path d="M35.4063 31.6739L22.9158 19.1835H18.5925C18.5925 19.1834 18.5925 19.1835 18.5925 19.1835L35.4061 35.9971H35.4063C35.4063 35.9971 35.4063 33.0164 35.4063 31.6739Z" fill="#D80027"/>
<path d="M21.453 42.1113L23.3825 46.1458L27.7396 45.1387L25.7884 49.1628L29.2922 51.9413L24.9297 52.9246L24.9419 57.3966L21.453 54.5988L17.9643 57.3966L17.9766 52.9246L13.6139 51.9413L17.1178 49.1628L15.1664 45.1387L19.5237 46.1458L21.453 42.1113Z" fill="#F0F0F0"/>
<path d="M52.8862 49.754L53.8509 51.7712L56.0295 51.2676L55.0538 53.2796L56.8058 54.669L54.6245 55.1606L54.6305 57.3966L52.8862 55.9976L51.1418 57.3966L51.1479 55.1606L48.9667 54.669L50.7186 53.2796L49.743 51.2676L51.9214 51.7712L52.8862 49.754Z" fill="#F0F0F0"/>
<path d="M43.9115 28.3546L44.8761 30.3719L47.0547 29.8682L46.0791 31.8802L47.831 33.2696L45.6498 33.7612L45.6557 35.9972L43.9115 34.5982L42.1671 35.9972L42.173 33.7612L39.9918 33.2696L41.7437 31.8802L40.7681 29.8682L42.9467 30.3719L43.9115 28.3546Z" fill="#F0F0F0"/>
<path d="M52.8862 16.1262L53.8509 18.1436L56.0295 17.64L55.0539 19.652L56.8057 21.0412L54.6245 21.533L54.6305 23.769L52.8862 22.37L51.1418 23.769L51.1479 21.533L48.9667 21.0412L50.7184 19.652L49.743 17.64L51.9214 18.1436L52.8862 16.1262Z" fill="#F0F0F0"/>
<path d="M60.7254 25.2975L61.69 27.3148L63.8686 26.8111L62.893 28.8231L64.6449 30.2125L62.4636 30.7043L62.4697 32.9401L60.7254 31.5413L58.9811 32.9401L58.987 30.7043L56.8058 30.2125L58.5577 28.8231L57.5821 26.8111L59.7606 27.3148L60.7254 25.2975Z" fill="#F0F0F0"/>
<path d="M55.12 35.9971L55.8787 38.3326H58.3344L56.3477 39.776L57.1067 42.1113L55.12 40.668L53.1334 42.1113L53.8921 39.776L51.9055 38.3326H54.3611L55.12 35.9971Z" fill="#F0F0F0"/>
</g>
<defs>
<clipPath id="clip0_430_480">
<rect width="70.3125" height="70.3125" fill="white" transform="translate(0.25 0.840912)"/>
</clipPath>
</defs>
</svg>
