<svg width="50" height="50" viewBox="0 0 72 72" fill="none" xmlns="http://www.w3.org/2000/svg">
<g clip-path="url(#clip0_430_473)">
<path d="M36.0312 71.1534C55.4475 71.1534 71.1875 55.4134 71.1875 35.9972C71.1875 16.5809 55.4475 0.840912 36.0312 0.840912C16.615 0.840912 0.875 16.5809 0.875 35.9972C0.875 55.4134 16.615 71.1534 36.0312 71.1534Z" fill="#F0F0F0"/>
<path d="M47.4498 26.8259H42.8501C42.8881 27.3314 42.9097 27.8414 42.9097 28.3544C42.9097 31.7552 42.0596 35.0515 40.5777 37.3979C40.1205 38.1216 39.3523 39.1436 38.324 39.833V26.8257H33.7384V39.833C32.7102 39.1436 31.9419 38.1218 31.4847 37.3979C30.0026 35.0515 29.1527 31.7552 29.1527 28.3544C29.1527 27.8414 29.1744 27.3313 29.2123 26.8259H24.6126C24.5831 27.3289 24.567 27.8384 24.567 28.3544C24.567 37.7828 29.6026 45.1682 36.031 45.1682C42.4594 45.1682 47.4949 37.7828 47.4949 28.3544C47.4952 27.8384 47.4791 27.3289 47.4498 26.8259V26.8259Z" fill="#D80027"/>
<path d="M15.3961 17.6548H19.9817V20.7119H24.5672V17.6548H29.1528V20.7119H33.7384V17.6548H38.3239V20.7119H42.9095V17.6548H47.495V20.7119H52.0806V17.6548H56.6661V20.7119H67.6987C62.0126 8.95226 49.9693 0.840912 36.0313 0.840912C22.0934 0.840912 10.05 8.95226 4.36353 20.7119H15.3961V17.6548Z" fill="#6DA544"/>
<path d="M56.6665 51.2825V54.3396H52.081V51.2825H47.4954V54.3396H42.9099V51.2825H38.3243V54.3396H33.7388V51.2825H29.1532V54.3396H24.5677V51.2825H19.9817V54.3396H15.3961V51.2825H4.36353C10.05 63.0421 22.0933 71.1534 36.0313 71.1534C49.9694 71.1534 62.0126 63.0421 67.6992 51.2825H56.6665Z" fill="#D80027"/>
</g>
<defs>
<clipPath id="clip0_430_473">
<rect width="70.3125" height="70.3125" fill="white" transform="translate(0.875 0.840912)"/>
</clipPath>
</defs>
</svg>
