<svg width="50" height="50" viewBox="0 0 71 72" fill="none" xmlns="http://www.w3.org/2000/svg">
<g clip-path="url(#clip0_430_480)">
<path d="M35.4062 71.1534C54.8225 71.1534 70.5625 55.4134 70.5625 35.9972C70.5625 16.5809 54.8225 0.840912 35.4062 0.840912C15.99 0.840912 0.25 16.5809 0.25 35.9972C0.25 55.4134 15.99 71.1534 35.4062 71.1534Z" fill="#F0F0F0"/>
<path d="M70.5625 35.9971C70.5625 22.059 62.4512 10.0158 50.6915 4.32932V67.6648C62.4512 61.9784 70.5625 49.9352 70.5625 35.9971V35.9971Z" fill="#D80027"/>
<path d="M0.25 35.9971C0.25 49.9352 8.36134 61.9784 20.121 67.6649V4.32932C8.36134 10.0158 0.25 22.059 0.25 35.9971Z" fill="#6DA544"/>
<path d="M26.2351 35.9971C26.2351 41.0623 30.3412 45.1684 35.4064 45.1684C40.4715 45.1684 44.5776 41.0623 44.5776 35.9971V32.9401H26.2351V35.9971Z" fill="#6DA544"/>
<path d="M47.6344 29.8829H38.4632C38.4632 28.1946 37.0944 26.8259 35.4061 26.8259C33.7177 26.8259 32.349 28.1946 32.349 29.8829H23.1777C23.1777 31.5714 24.6484 32.94 26.3366 32.94H26.2348C26.2348 34.6285 27.6034 35.9971 29.2919 35.9971C29.2919 37.6856 30.6605 39.0542 32.349 39.0542H38.4632C40.1516 39.0542 41.5202 37.6856 41.5202 35.9971C43.2087 35.9971 44.5773 34.6285 44.5773 32.94H44.4754C46.1639 32.94 47.6344 31.5714 47.6344 29.8829Z" fill="#FF9811"/>
</g>
<defs>
<clipPath id="clip0_430_480">
<rect width="70.3125" height="70.3125" fill="white" transform="translate(0.25 0.840912)"/>
</clipPath>
</defs>
</svg>
