<svg width="50" height="50" viewBox="0 0 72 72" fill="none" xmlns="http://www.w3.org/2000/svg">
<g clip-path="url(#clip0_430_473)">
<path d="M36.0312 71.1534C55.4475 71.1534 71.1875 55.4134 71.1875 35.9972C71.1875 16.5809 55.4475 0.840912 36.0312 0.840912C16.615 0.840912 0.875 16.5809 0.875 35.9972C0.875 55.4134 16.615 71.1534 36.0312 71.1534Z" fill="#F0F0F0"/>
<path d="M70.8899 31.4116H40.6171H40.6169V1.1385C39.1158 0.943085 37.5854 0.840912 36.0312 0.840912C34.4771 0.840912 32.9467 0.943085 31.4457 1.1385V31.4113V31.4115H1.17259C0.977173 32.9126 0.875 34.4427 0.875 35.9972C0.875 37.5516 0.977173 39.0817 1.17259 40.5827H31.4454H31.4456V70.8558C32.9467 71.0512 34.4771 71.1534 36.0312 71.1534C37.5854 71.1534 39.1158 71.0514 40.6168 70.8558V40.583V40.5829H70.8899C71.0853 39.0817 71.1875 37.5516 71.1875 35.9972C71.1875 34.4427 71.0853 32.9126 70.8899 31.4116V31.4116Z" fill="#D80027"/>
</g>
<defs>
<clipPath id="clip0_430_473">
<rect width="70.3125" height="70.3125" fill="white" transform="translate(0.875 0.840912)"/>
</clipPath>
</defs>
</svg>
