<svg width="50" height="50" viewBox="0 0 71 72" fill="none" xmlns="http://www.w3.org/2000/svg">
<g clip-path="url(#clip0_430_480)">
<path d="M50.6915 4.32935C46.0695 2.09445 40.8843 0.840912 35.4062 0.840912C29.9281 0.840912 24.7429 2.09445 20.1209 4.32935L17.0638 35.9972L20.1209 67.665C24.7429 69.8999 29.9281 71.1534 35.4062 71.1534C40.8843 71.1534 46.0695 69.8999 50.6915 67.665L53.7486 35.9972L50.6915 4.32935Z" fill="#FFDA44"/>
<path d="M35.4059 23.7689L38.4409 33.11H48.2637L40.3173 38.8838L43.3524 48.2253L35.4059 42.452L27.4593 48.2253L30.495 38.8838L22.5486 33.11H32.3708L35.4059 23.7689Z" fill="#496E2D"/>
<path d="M20.121 4.33057C8.36148 10.017 0.25 22.0592 0.25 35.9971C0.25 49.9351 8.36148 61.9773 20.121 67.6637V4.33057Z" fill="#496E2D"/>
<path d="M50.6915 4.33057V67.6637C62.451 61.9773 70.5625 49.9351 70.5625 35.9971C70.5625 22.0592 62.451 10.017 50.6915 4.33057Z" fill="#D80027"/>
</g>
<defs>
<clipPath id="clip0_430_480">
<rect width="70.3125" height="70.3125" fill="white" transform="translate(0.25 0.840912)"/>
</clipPath>
</defs>
</svg>
