<svg width="50" height="52" viewBox="0 0 71 72" fill="none" xmlns="http://www.w3.org/2000/svg">
<g clip-path="url(#clip0_430_480)">
<path d="M35.4062 71.1534C54.8225 71.1534 70.5625 55.4134 70.5625 35.9972C70.5625 16.5809 54.8225 0.840912 35.4062 0.840912C15.99 0.840912 0.25 16.5809 0.25 35.9972C0.25 55.4134 15.99 71.1534 35.4062 71.1534Z" fill="#D80027"/>
<path d="M35.4063 52.811C44.6923 52.811 52.2202 45.2832 52.2202 35.9971C52.2202 26.7111 44.6923 19.1833 35.4063 19.1833C26.1202 19.1833 18.5924 26.7111 18.5924 35.9971C18.5924 45.2832 26.1202 52.811 35.4063 52.811Z" fill="#F0F0F0"/>
<path d="M37.4777 29.5682L40.3621 33.5432L45.0336 32.0285L42.1447 36L45.0288 39.9749L40.3588 38.4544L37.4698 42.4259L37.4729 37.5149L32.803 35.9944L37.4746 34.4797L37.4777 29.5682Z" fill="#D80027"/>
<path d="M39.2276 45.9326C33.7405 45.9326 29.2921 41.4843 29.2921 35.9971C29.2921 30.51 33.7405 26.0616 39.2276 26.0616C40.9385 26.0616 42.5484 26.4942 43.9538 27.2559C41.749 25.0997 38.7339 23.7688 35.4063 23.7688C28.653 23.7688 23.1781 29.2436 23.1781 35.997C23.1781 42.7504 28.653 48.2252 35.4063 48.2252C38.7339 48.2252 41.7491 46.8943 43.9538 44.7381C42.5484 45.5 40.9385 45.9326 39.2276 45.9326Z" fill="#D80027"/>
</g>
<defs>
<clipPath id="clip0_430_480">
<rect width="70.3125" height="70.3125" fill="white" transform="translate(0.25 0.840912)"/>
</clipPath>
</defs>
</svg>
