<svg width="50" height="50" viewBox="0 0 72 72" fill="none" xmlns="http://www.w3.org/2000/svg">
<g clip-path="url(#clip0_430_473)">
<path d="M36.0312 71.1534C55.4475 71.1534 71.1875 55.4134 71.1875 35.9972C71.1875 16.5809 55.4475 0.840912 36.0312 0.840912C16.615 0.840912 0.875 16.5809 0.875 35.9972C0.875 55.4134 16.615 71.1534 36.0312 71.1534Z" fill="#F0F0F0"/>
<path d="M36.0313 0.840912C22.0933 0.840912 10.05 8.95226 4.36353 20.7119H67.699C62.0126 8.95226 49.9693 0.840912 36.0313 0.840912V0.840912Z" fill="#338AF3"/>
<path d="M36.0313 71.1534C49.9693 71.1534 62.0126 63.0421 67.6992 51.2825H4.36353C10.05 63.0421 22.0933 71.1534 36.0313 71.1534Z" fill="#338AF3"/>
<path d="M46.539 35.9972L42.2454 38.0169L44.5318 42.1751L39.8695 41.2831L39.2787 45.993L36.0313 42.529L32.7837 45.993L32.1931 41.2831L27.5308 42.1749L29.817 38.0167L25.5236 35.9972L29.8172 33.9775L27.5308 29.8194L32.1929 30.7112L32.7839 26.0014L36.0313 29.4654L39.2789 26.0014L39.8695 30.7112L44.532 29.8194L42.2456 33.9776L46.539 35.9972Z" fill="#FFDA44"/>
</g>
<defs>
<clipPath id="clip0_430_473">
<rect width="70.3125" height="70.3125" fill="white" transform="translate(0.875 0.840912)"/>
</clipPath>
</defs>
</svg>
