<svg width="50" height="50" viewBox="0 0 71 72" fill="none" xmlns="http://www.w3.org/2000/svg">
<g clip-path="url(#clip0_430_480)">
<path d="M35.4062 71.1534C54.8225 71.1534 70.5625 55.4134 70.5625 35.9972C70.5625 16.5809 54.8225 0.840912 35.4062 0.840912C15.99 0.840912 0.25 16.5809 0.25 35.9972C0.25 55.4134 15.99 71.1534 35.4062 71.1534Z" fill="#F0F0F0"/>
<path d="M27.7638 31.4116H70.265C68.0179 14.1621 53.2683 0.840912 35.4063 0.840912C32.7813 0.840912 30.2246 1.13109 27.7637 1.67656V31.4116H27.7638Z" fill="#D80027"/>
<path d="M18.5924 31.4115V5.11554C8.9391 10.3827 2.02843 20.0439 0.547607 31.4116H18.5924V31.4115Z" fill="#D80027"/>
<path d="M18.5922 40.5827H0.547607C2.02843 51.9504 8.9391 61.6116 18.5924 66.8786L18.5922 40.5827Z" fill="#D80027"/>
<path d="M27.7637 40.5828V70.3178C30.2246 70.8632 32.7813 71.1534 35.4063 71.1534C53.2683 71.1534 68.0179 57.8322 70.265 40.5827H27.7637V40.5828Z" fill="#D80027"/>
</g>
<defs>
<clipPath id="clip0_430_480">
<rect width="70.3125" height="70.3125" fill="white" transform="translate(0.25 0.840912)"/>
</clipPath>
</defs>
</svg>
