<svg width="51" height="52" viewBox="0 0 71 72" fill="none" xmlns="http://www.w3.org/2000/svg">
<g clip-path="url(#clip0_430_480)">
<path d="M35.4062 71.1534C54.8225 71.1534 70.5625 55.4134 70.5625 35.9972C70.5625 16.5809 54.8225 0.840912 35.4062 0.840912C15.99 0.840912 0.25 16.5809 0.25 35.9972C0.25 55.4134 15.99 71.1534 35.4062 71.1534Z" fill="#6DA544"/>
<path d="M20.121 42.8755C20.121 45.408 22.174 47.4611 24.7065 47.4611H38.4633C38.4633 49.5716 40.1742 51.2824 42.2847 51.2824H46.8702C48.9807 51.2824 50.6915 49.5716 50.6915 47.4611V42.8755H20.121Z" fill="#F0F0F0"/>
<path d="M51.0738 20.7119V31.4116C51.0738 33.0973 49.7024 34.4687 48.0167 34.4687V39.0542C52.2309 39.0542 55.6594 35.6257 55.6594 31.4116V20.7119H51.0738Z" fill="#F0F0F0"/>
<path d="M18.2104 31.4115C18.2104 33.0973 16.839 34.4686 15.1533 34.4686V39.0542C19.3675 39.0542 22.796 35.6256 22.796 31.4115V20.7118H18.2104V31.4115Z" fill="#F0F0F0"/>
<path d="M44.1953 20.7119H48.7809V31.4116H44.1953V20.7119Z" fill="#F0F0F0"/>
<path d="M37.3169 26.8259C37.3169 27.2474 36.974 27.5901 36.5527 27.5901C36.1314 27.5901 35.7885 27.2472 35.7885 26.8259V20.7117H31.2029V26.8259C31.2029 27.2474 30.86 27.5901 30.4387 27.5901C30.0173 27.5901 29.6744 27.2472 29.6744 26.8259V20.7117H25.0887V26.8259C25.0887 29.7759 27.4887 32.1758 30.4387 32.1758C31.5748 32.1758 32.6284 31.8188 33.4958 31.2123C34.363 31.8186 35.4167 32.1758 36.5528 32.1758C36.7816 32.1758 37.0066 32.1598 37.2278 32.1316C36.9029 33.4704 35.6971 34.4685 34.26 34.4685V39.0541C38.4742 39.0541 41.9026 35.6255 41.9026 31.4115V26.8259V20.7117H37.3171V26.8259H37.3169Z" fill="#F0F0F0"/>
<path d="M25.0887 34.4687H31.9671V39.0542H25.0887V34.4687Z" fill="#F0F0F0"/>
</g>
<defs>
<clipPath id="clip0_430_480">
<rect width="70.3125" height="70.3125" fill="white" transform="translate(0.25 0.840912)"/>
</clipPath>
</defs>
</svg>
