<svg width="50" height="50" viewBox="0 0 71 72" fill="none" xmlns="http://www.w3.org/2000/svg">
<g clip-path="url(#clip0_430_480)">
<path d="M35.4062 71.1534C54.8225 71.1534 70.5625 55.4134 70.5625 35.9972C70.5625 16.5809 54.8225 0.840912 35.4062 0.840912C15.99 0.840912 0.25 16.5809 0.25 35.9972C0.25 55.4134 15.99 71.1534 35.4062 71.1534Z" fill="#F0F0F0"/>
<path d="M33.8778 35.9971H70.5625C70.5625 32.824 70.1396 29.75 69.3514 26.8259H33.8778V35.9971Z" fill="#D80027"/>
<path d="M33.8778 17.6548H65.4025C63.2504 14.143 60.4988 11.0389 57.2905 8.48352H33.8778V17.6548Z" fill="#D80027"/>
<path d="M35.4062 71.1534C43.6801 71.1534 51.285 68.2936 57.2904 63.5107H13.522C19.5274 68.2936 27.1322 71.1534 35.4062 71.1534Z" fill="#D80027"/>
<path d="M5.40996 54.3395H65.4025C67.1302 51.5203 68.4701 48.4386 69.3514 45.1683H1.46106C2.3423 48.4386 3.68222 51.5203 5.40996 54.3395V54.3395Z" fill="#D80027"/>
<path d="M16.535 6.33105H19.7388L16.7587 8.49605L17.8971 11.9992L14.9172 9.83418L11.9373 11.9992L12.9205 8.97285C10.2967 11.1584 7.99701 13.7191 6.10187 16.5722H7.1284L5.23148 17.9503C4.93594 18.4433 4.6525 18.9442 4.38086 19.4524L5.28668 22.2404L3.59671 21.0125C3.17662 21.9025 2.79237 22.8126 2.44699 23.7416L3.44496 26.8134H7.1284L4.14836 28.9784L5.28668 32.4815L2.30678 30.3165L0.521774 31.6135C0.343109 33.0497 0.25 34.5125 0.25 35.9972H35.4062C35.4062 16.581 35.4062 14.292 35.4062 0.840912C28.4612 0.840912 21.9871 2.85553 16.535 6.33105V6.33105ZM17.8971 32.4815L14.9172 30.3165L11.9373 32.4815L13.0756 28.9784L10.0955 26.8134H13.779L14.9172 23.3103L16.0553 26.8134H19.7388L16.7587 28.9784L17.8971 32.4815ZM16.7587 18.7372L17.8971 22.2404L14.9172 20.0754L11.9373 22.2404L13.0756 18.7372L10.0955 16.5722H13.779L14.9172 13.0691L16.0553 16.5722H19.7388L16.7587 18.7372ZM30.5074 32.4815L27.5275 30.3165L24.5476 32.4815L25.686 28.9784L22.7059 26.8134H26.3894L27.5275 23.3103L28.6657 26.8134H32.3492L29.3691 28.9784L30.5074 32.4815ZM29.3691 18.7372L30.5074 22.2404L27.5275 20.0754L24.5476 22.2404L25.686 18.7372L22.7059 16.5722H26.3894L27.5275 13.0691L28.6657 16.5722H32.3492L29.3691 18.7372ZM29.3691 8.49605L30.5074 11.9992L27.5275 9.83418L24.5476 11.9992L25.686 8.49605L22.7059 6.33105H26.3894L27.5275 2.82793L28.6657 6.33105H32.3492L29.3691 8.49605Z" fill="#0052B4"/>
</g>
<defs>
<clipPath id="clip0_430_480">
<rect width="70.3125" height="70.3125" fill="white" transform="translate(0.25 0.840912)"/>
</clipPath>
</defs>
</svg>
